<svg width="131" height="37" viewBox="0 0 131 37" fill="none" xmlns="http://www.w3.org/2000/svg">
<path d="M0 6.79562H9.55419C11.8698 6.73285 14.1682 7.21077 16.2676 8.19155C18.0844 9.06844 19.5897 10.4814 20.5811 12.2406C21.6194 14.1691 22.1359 16.3362 22.0792 18.5266C22.1386 20.7281 21.6273 22.9075 20.5952 24.8522C19.612 26.6127 18.1106 28.0267 16.2958 28.9012C14.1877 29.8827 11.8809 30.3606 9.55702 30.2972H0V6.79562ZM8.95211 25.2004C9.87395 25.272 10.8008 25.1586 11.6783 24.8669C12.5559 24.5751 13.3665 24.111 14.0628 23.5015C14.6736 22.8057 15.1385 21.9939 15.4299 21.1144C15.7212 20.235 15.8331 19.3058 15.7588 18.3822C15.8368 17.4583 15.7268 16.5281 15.4352 15.6481C15.1437 14.7681 14.6768 13.9566 14.0628 13.2628C13.3619 12.6631 12.5495 12.2083 11.6724 11.9245C10.7952 11.6407 9.87074 11.5335 8.95211 11.6092H5.93604V25.2004H8.95211Z" fill="#143BE2"/>
<path d="M40.1389 23.2184H29.9628C30.0713 24.1088 30.509 24.9262 31.1896 25.5091C31.9448 26.0212 32.8493 26.2654 33.7591 26.2028C35.4063 26.1812 37.0085 25.661 38.3553 24.7106L39.8562 28.57C38.9597 29.2077 37.9606 29.6865 36.9024 29.9857C35.7867 30.3237 34.6279 30.4973 33.4623 30.501C31.7819 30.5439 30.1148 30.1919 28.5947 29.4732C27.2688 28.8268 26.1677 27.7958 25.4345 26.5143C24.664 25.1353 24.2756 23.5751 24.3095 21.9952C24.282 20.4643 24.6397 18.951 25.3497 17.595C26.0159 16.3309 27.0278 15.2829 28.2668 14.5738C29.5586 13.8412 31.0227 13.4687 32.5069 13.495C33.5353 13.4549 34.5603 13.6363 35.5127 14.0271C36.4651 14.4179 37.3226 15.0089 38.0274 15.7602C39.4402 17.4508 40.1907 19.5985 40.1389 21.8026V23.2184ZM29.9628 20.3869H35.1074C34.9793 18.4407 34.1228 17.4676 32.538 17.4676C30.9531 17.4676 30.0948 18.4407 29.9628 20.3869Z" fill="#143BE2"/>
<path d="M53.5882 13.8744H59.3971L52.0731 30.2972H47.1717L39.9636 13.8744H46.1823L49.792 23.1306L53.5882 13.8744Z" fill="#143BE2"/>
<path d="M69.8191 14.1575H73.4938V18.4048H69.5364V30.2971H63.6004V18.4048H60.7737V14.1575H63.8011C63.7903 13.2009 63.9869 12.2533 64.3773 11.3802C64.7677 10.5071 65.3427 9.7293 66.0624 9.10045C67.909 7.81149 70.1126 7.13511 72.3631 7.16653L74.404 7.03911L74.7432 11.2496L73.1715 11.3119C72.2714 11.2835 71.3781 11.478 70.571 11.8782C70.3093 12.075 70.1027 12.336 69.971 12.636C69.8393 12.9361 69.787 13.265 69.8191 13.5912V14.1575Z" fill="#143BE2"/>
<path d="M78.7034 29.4477C77.3858 28.7892 76.2915 27.756 75.5573 26.4775C74.7941 25.0974 74.4126 23.5384 74.452 21.9612C74.411 20.3884 74.7927 18.8335 75.5573 17.4591C76.291 16.1944 77.3803 15.1742 78.6892 14.5257C80.1773 13.8474 81.7932 13.4965 83.4282 13.4965C85.0631 13.4965 86.679 13.8474 88.1671 14.5257C89.4771 15.1737 90.5674 16.194 91.3019 17.4591C92.0664 18.8335 92.4482 20.3884 92.4071 21.9612C92.4466 23.5384 92.065 25.0974 91.3019 26.4775C90.552 27.7628 89.4385 28.7965 88.1021 29.4477C86.6215 30.1351 85.0092 30.4912 83.3773 30.4912C81.7454 30.4912 80.1331 30.1351 78.6525 29.4477H78.7034ZM86.5757 22.0122C86.5757 19.2675 85.527 17.8952 83.4296 17.8952C81.3322 17.8952 80.2816 19.2675 80.2778 22.0122C80.2778 24.7569 81.3265 26.1292 83.4239 26.1292C85.5213 26.1292 86.571 24.7569 86.5728 22.0122H86.5757Z" fill="#143BE2"/>
<path d="M94.9766 30.2972V6.79562H100.913V30.2972H94.9766Z" fill="#143BE2"/>
<path d="M104.305 5.66302H110.523V11.0429H104.305V5.66302ZM104.305 30.2575V13.8744H110.241V30.2972L104.305 30.2575Z" fill="#143BE2"/>
<path d="M117.2 29.4477C115.882 28.7892 114.788 27.756 114.054 26.4775C113.291 25.0974 112.909 23.5384 112.949 21.9612C112.908 20.3884 113.289 18.8335 114.054 17.4591C114.788 16.1944 115.877 15.1742 117.186 14.5257C118.674 13.8474 120.29 13.4965 121.925 13.4965C123.56 13.4965 125.176 13.8474 126.664 14.5257C127.973 15.1742 129.062 16.1944 129.796 17.4591C130.56 18.8335 130.942 20.3884 130.901 21.9612C130.94 23.5384 130.559 25.0974 129.796 26.4775C129.056 27.757 127.957 28.7901 126.635 29.4477C125.155 30.1351 123.543 30.4912 121.911 30.4912C120.279 30.4912 118.666 30.1351 117.186 29.4477H117.2ZM125.072 22.0858C125.072 19.3411 124.024 17.9688 121.926 17.9688C119.829 17.9688 118.78 19.3411 118.78 22.0858C118.78 24.8305 119.829 26.2028 121.926 26.2028C124.024 26.2028 125.068 24.8305 125.058 22.0858H125.072Z" fill="#143BE2"/>
</svg>
